<svg xmlns="http://www.w3.org/2000/svg" width="1409" height="645" viewBox="0 0 564 258" font-family="Arial, sans-serif">
  <defs>
    <marker id="ah" viewBox="0 0 8 6" refX="8" refY="3"
      markerWidth="4" markerHeight="3" orient="auto">
      <path d="M0.5,0.5 L7,3 L0.5,5.5" fill="none" stroke="#94A3B8"
        stroke-width="1.2" stroke-linejoin="round" stroke-linecap="round"/>
    </marker>
    <filter id="shadow" x="-6%" y="-8%" width="112%" height="128%">
      <feDropShadow dx="0" dy="0.5" stdDeviation="0.8"
        flood-color="#000" flood-opacity="0.05"/>
    </filter>
  </defs>
  <rect width="564" height="258" fill="#F8F9FB" rx="3"/>
  <text x="282" y="11" text-anchor="middle" font-size="6" font-weight="700" fill="#1E293B">Ophis Vault Policy Module Architecture</text>
  <rect x="207" y="16" width="150" height="10" rx="3" fill="#fff" stroke="#E2E5EA" stroke-width="0.4"/>
  <rect x="212" y="18.5" width="5" height="5" rx="2.5" fill="#fff" stroke="#E2E5EA" stroke-width="0.4"/>
  <text x="220" y="22.5" font-size="3.5" fill="#1E293B">Actor</text>
  <rect x="252" y="18.5" width="5" height="5" rx="1.5" fill="#fff" stroke="#E2E5EA" stroke-width="0.4"/>
  <rect x="253" y="19.5" width="0.8" height="3" rx="0.4" fill="#3B82F6"/>
  <text x="260" y="22.5" font-size="3.5" fill="#1E293B">Protocol</text>
  <rect x="300" y="18.5" width="5" height="5" rx="1.5" fill="#fff" stroke="#E2E5EA" stroke-width="0.4"/>
  <rect x="301" y="19.5" width="0.8" height="3" rx="0.4" fill="#F59E0B"/>
  <text x="308" y="22.5" font-size="3.5" fill="#1E293B">External</text>
  <path d="M174.1,46.0 C174.1,70.0 230.7,70.0 230.7,94.0" fill="none" stroke="#94A3B8" stroke-width="0.5" marker-end="url(#ah)"/>
  <path d="M273.1,46.0 C273.1,70.0 230.7,70.0 230.7,94.0" fill="none" stroke="#94A3B8" stroke-width="0.5" marker-end="url(#ah)"/>
  <path d="M375.1,46.0 C375.1,70.0 391.3,70.0 391.3,94.0" fill="none" stroke="#94A3B8" stroke-width="0.5" marker-end="url(#ah)"/>
  <path d="M481.9,46.0 C481.9,70.0 391.3,70.0 391.3,94.0" fill="none" stroke="#94A3B8" stroke-width="0.5" marker-end="url(#ah)"/>
  <path d="M141.2,112.0 C149.2,130.0 159.9,130.0 167.9,114.0" fill="none" stroke="#94A3B8" stroke-width="0.5" marker-end="url(#ah)"/>
  <path d="M230.7,114.0 C230.7,135.0 226.0,135.0 226.0,156.0" fill="none" stroke="#94A3B8" stroke-width="0.5" marker-end="url(#ah)"/>
  <path d="M230.7,114.0 C230.7,135.0 342.4,135.0 342.4,156.0" fill="none" stroke="#94A3B8" stroke-width="0.5" marker-end="url(#ah)"/>
  <path d="M391.3,114.0 C391.3,135.0 468.4,135.0 468.4,156.0" fill="none" stroke="#94A3B8" stroke-width="0.5" marker-end="url(#ah)"/>
  <path d="M226.0,176.0 C226.0,197.0 226.0,197.0 226.0,218.0" fill="none" stroke="#94A3B8" stroke-width="0.5" marker-end="url(#ah)"/>
  <path d="M342.4,176.0 C342.4,197.0 342.4,197.0 342.4,218.0" fill="none" stroke="#94A3B8" stroke-width="0.5" marker-end="url(#ah)"/>
  <path d="M342.4,176.0 C342.4,197.0 456.4,197.0 456.4,218.0" fill="none" stroke="#94A3B8" stroke-width="0.5" marker-end="url(#ah)"/>
  <g filter="url(#shadow)">
    <rect x="133.5" y="32.0" width="81.2" height="14" rx="7" fill="#fff" stroke="#E2E5EA" stroke-width="0.5"/>
    <text x="174.1" y="40.8" text-anchor="middle" font-size="4.8" font-weight="600" fill="#1E293B">Curator</text>
  </g>
  <g filter="url(#shadow)">
    <rect x="236.7" y="32.0" width="72.8" height="14" rx="7" fill="#fff" stroke="#E2E5EA" stroke-width="0.5"/>
    <text x="273.1" y="40.8" text-anchor="middle" font-size="4.8" font-weight="600" fill="#1E293B">Safe Owners</text>
  </g>
  <g filter="url(#shadow)">
    <rect x="331.5" y="32.0" width="87.2" height="14" rx="7" fill="#fff" stroke="#E2E5EA" stroke-width="0.5"/>
    <text x="375.1" y="40.8" text-anchor="middle" font-size="4.8" font-weight="600" fill="#1E293B">Ophis Timelock</text>
  </g>
  <g filter="url(#shadow)">
    <rect x="440.7" y="32.0" width="82.4" height="14" rx="7" fill="#fff" stroke="#E2E5EA" stroke-width="0.5"/>
    <text x="481.9" y="40.8" text-anchor="middle" font-size="4.8" font-weight="600" fill="#1E293B">Guardian Safe</text>
  </g>
  <g filter="url(#shadow)">
    <rect x="30.0" y="94.0" width="111.2" height="20" rx="3" fill="#fff" stroke="#E2E5EA" stroke-width="0.5"/>
    <rect x="33.0" y="97.0" width="1.4" height="14" rx="0.6" fill="#3B82F6"/>
    <text x="85.6" y="103.5" text-anchor="middle" font-size="4.8" font-weight="600" fill="#1E293B">PolicyModuleFactory</text>
    <text x="85.6" y="108.5" text-anchor="middle" font-size="3.5" fill="#64748B">Deploy gate</text>
  </g>
  <g filter="url(#shadow)">
    <rect x="167.9" y="94.0" width="125.6" height="20" rx="3" fill="#fff" stroke="#E2E5EA" stroke-width="0.5"/>
    <rect x="170.9" y="97.0" width="1.4" height="14" rx="0.6" fill="#3B82F6"/>
    <text x="230.7" y="103.5" text-anchor="middle" font-size="4.8" font-weight="600" fill="#1E293B">OphisVaultPolicyModule</text>
    <text x="230.7" y="108.5" text-anchor="middle" font-size="3.5" fill="#64748B">Policy gate</text>
  </g>
  <g filter="url(#shadow)">
    <rect x="340.5" y="94.0" width="101.6" height="20" rx="3" fill="#fff" stroke="#E2E5EA" stroke-width="0.5"/>
    <rect x="343.5" y="97.0" width="1.4" height="14" rx="0.6" fill="#3B82F6"/>
    <text x="391.3" y="103.5" text-anchor="middle" font-size="4.8" font-weight="600" fill="#1E293B">AllowListGuardian</text>
    <text x="391.3" y="108.5" text-anchor="middle" font-size="3.5" fill="#64748B">Solver ACL split</text>
  </g>
  <g filter="url(#shadow)">
    <rect x="170.4" y="156.0" width="111.2" height="20" rx="3" fill="#fff" stroke="#E2E5EA" stroke-width="0.5"/>
    <rect x="173.4" y="159.0" width="1.4" height="14" rx="0.6" fill="#3B82F6"/>
    <text x="226.0" y="165.5" text-anchor="middle" font-size="4.8" font-weight="600" fill="#1E293B">OphisChainlinkFloor</text>
    <text x="226.0" y="170.5" text-anchor="middle" font-size="3.5" fill="#64748B">Oracle floor lib</text>
  </g>
  <g filter="url(#shadow)">
    <rect x="303.6" y="156.0" width="77.6" height="20" rx="3" fill="#fff" stroke="#E2E5EA" stroke-width="0.5"/>
    <rect x="306.6" y="159.0" width="1.4" height="14" rx="0.6" fill="#F59E0B"/>
    <text x="342.4" y="165.5" text-anchor="middle" font-size="4.8" font-weight="600" fill="#1E293B">Vault Safe</text>
    <text x="342.4" y="170.5" text-anchor="middle" font-size="3.5" fill="#64748B">Owner + receiver</text>
  </g>
  <g filter="url(#shadow)">
    <rect x="403.2" y="156.0" width="130.4" height="20" rx="3" fill="#fff" stroke="#E2E5EA" stroke-width="0.5"/>
    <rect x="406.2" y="159.0" width="1.4" height="14" rx="0.6" fill="#F59E0B"/>
    <text x="468.4" y="165.5" text-anchor="middle" font-size="4.8" font-weight="600" fill="#1E293B">AllowListAuthentication</text>
    <text x="468.4" y="170.5" text-anchor="middle" font-size="3.5" fill="#64748B">Solver registry</text>
  </g>
  <g filter="url(#shadow)">
    <rect x="178.2" y="218.0" width="95.6" height="20" rx="3" fill="#fff" stroke="#E2E5EA" stroke-width="0.5"/>
    <rect x="181.2" y="221.0" width="1.4" height="14" rx="0.6" fill="#F59E0B"/>
    <text x="226.0" y="227.5" text-anchor="middle" font-size="4.8" font-weight="600" fill="#1E293B">Chainlink Feeds</text>
    <text x="226.0" y="232.5" text-anchor="middle" font-size="3.5" fill="#64748B">token/USD + sequencer</text>
  </g>
  <g filter="url(#shadow)">
    <rect x="298.8" y="218.0" width="87.2" height="20" rx="3" fill="#fff" stroke="#E2E5EA" stroke-width="0.5"/>
    <rect x="301.8" y="221.0" width="1.4" height="14" rx="0.6" fill="#F59E0B"/>
    <text x="342.4" y="227.5" text-anchor="middle" font-size="4.8" font-weight="600" fill="#1E293B">GPv2Settlement</text>
    <text x="342.4" y="232.5" text-anchor="middle" font-size="3.5" fill="#64748B">CoW settlement</text>
  </g>
  <g filter="url(#shadow)">
    <rect x="408.0" y="218.0" width="96.8" height="20" rx="3" fill="#fff" stroke="#E2E5EA" stroke-width="0.5"/>
    <rect x="411.0" y="221.0" width="1.4" height="14" rx="0.6" fill="#F59E0B"/>
    <text x="456.4" y="227.5" text-anchor="middle" font-size="4.8" font-weight="600" fill="#1E293B">GPv2VaultRelayer</text>
    <text x="456.4" y="232.5" text-anchor="middle" font-size="3.5" fill="#64748B">Sole spender</text>
  </g>
  <rect x="178.8" y="65.0" width="47.2" height="6.0" rx="1" fill="#F8F9FB"/>
  <text x="202.4" y="70.0" font-size="4" fill="#1E293B" font-weight="500" text-anchor="middle">rebalance / cancel</text>
  <rect x="230.7" y="65.0" width="42.4" height="6.0" rx="1" fill="#F8F9FB"/>
  <text x="251.9" y="70.0" font-size="4" fill="#1E293B" font-weight="500" text-anchor="middle">enable / disable</text>
  <rect x="369.2" y="65.0" width="28.0" height="6.0" rx="1" fill="#F8F9FB"/>
  <text x="383.2" y="70.0" font-size="4" fill="#1E293B" font-weight="500" text-anchor="middle">add solver</text>
  <rect x="419.0" y="65.0" width="35.2" height="6.0" rx="1" fill="#F8F9FB"/>
  <text x="436.6" y="70.0" font-size="4" fill="#1E293B" font-weight="500" text-anchor="middle">instant evict</text>
  <rect x="144.2" y="129.0" width="20.8" height="6.0" rx="1" fill="#F8F9FB"/>
  <text x="154.6" y="134.0" font-size="4" fill="#1E293B" font-weight="500" text-anchor="middle">deploys</text>
  <rect x="206.0" y="130.0" width="44.8" height="6.0" rx="1" fill="#F8F9FB"/>
  <text x="228.4" y="135.0" font-size="4" fill="#1E293B" font-weight="500" text-anchor="middle">floor + staleness</text>
  <rect x="267.8" y="130.0" width="37.6" height="6.0" rx="1" fill="#F8F9FB"/>
  <text x="286.6" y="135.0" font-size="4" fill="#1E293B" font-weight="500" text-anchor="middle">execFromModule</text>
  <rect x="413.5" y="130.0" width="32.8" height="6.0" rx="1" fill="#F8F9FB"/>
  <text x="429.9" y="135.0" font-size="4" fill="#1E293B" font-weight="500" text-anchor="middle">forwards ops</text>
  <rect x="206.0" y="192.0" width="40.0" height="6.0" rx="1" fill="#F8F9FB"/>
  <text x="226.0" y="197.0" font-size="4" fill="#1E293B" font-weight="500" text-anchor="middle">latestRoundData</text>
  <rect x="322.4" y="192.0" width="40.0" height="6.0" rx="1" fill="#F8F9FB"/>
  <text x="342.4" y="197.0" font-size="4" fill="#1E293B" font-weight="500" text-anchor="middle">setPreSignature</text>
  <rect x="381.8" y="192.0" width="35.2" height="6.0" rx="1" fill="#F8F9FB"/>
  <text x="399.4" y="197.0" font-size="4" fill="#1E293B" font-weight="500" text-anchor="middle">approve exact</text>
</svg>