<svg width="996" height="181" viewBox="0 0 996 181" fill="none" xmlns="http://www.w3.org/2000/svg">
<path d="M316.072 47.5877H319.064C355.185 47.5877 360.57 21.579 360.57 6.06153V1.0752H345.691V6.06153C345.691 18.7069 338.75 32.2298 319.264 32.2298H314.277V47.5678H316.072V47.5877Z" fill="white"/>
<path d="M382.033 1.0752H366.555V6.06153C366.555 15.3561 364.581 32.6487 351.397 43.5986C349.781 44.935 350.758 47.5678 352.853 47.5678H406.984V32.2298H377.565C379.879 25.6279 382.013 17.2309 382.013 6.06153V1.0752H382.033Z" fill="white"/>
<path d="M354.926 129.802V61.19C354.926 56.9816 351.515 53.5908 347.327 53.5908H314.277V69.946H336.656V127.468C336.656 146.795 343.238 161.116 356.222 169.992C365.696 176.474 379.439 179.625 398.247 179.625H403.234V163.23H398.247C360.092 163.23 354.946 146.357 354.946 129.842L354.926 129.802Z" fill="white"/>
<path d="M407.003 69.9069V53.5518H368.529C364.32 53.5518 360.93 56.9624 360.93 61.1509V129.763C360.93 143.625 363.802 157.168 398.247 157.168H403.234V140.713H398.247C386.978 140.713 382.371 139.157 380.456 137.861C378.143 136.285 377.803 130.621 377.803 127.369V69.8471H407.023L407.003 69.9069Z" fill="white"/>
<path d="M227.777 144.585C236.593 153.301 252.689 158.287 268.745 157.25C279.116 156.592 287.274 154.877 294.614 151.706L292.041 136.068L286.735 137.465C278.578 139.599 271.796 140.935 263.22 140.935C242.856 140.935 231.367 124.48 230.111 107.985H219.26C215.431 107.985 212.439 111.396 213.037 115.186C214.852 126.614 219.938 136.826 227.777 144.585Z" fill="white"/>
<path d="M200.669 102.002C203.86 102.002 206.473 99.609 206.912 96.4377C208.707 83.1541 214.471 71.2268 223.586 62.2115C234.416 51.5008 249.256 45.617 265.372 45.617C276.042 45.617 286.773 47.6514 295.788 51.1817L298.361 35.5645L294.452 34.1683C286.454 31.3162 272.033 29.541 263.257 29.541C221.851 29.541 190.397 60.4962 188.961 102.002H200.709H200.669Z" fill="white"/>
<path d="M265.352 51.6006C250.811 51.6006 237.468 56.8861 227.775 66.4798C220.215 73.9394 215.249 83.6927 213.254 94.6028C212.556 98.4522 215.528 102.002 219.457 102.002H230.108C231.365 85.5077 242.873 69.0528 263.217 69.0528C271.794 69.0528 278.575 70.3891 286.733 72.5233L292.038 73.9194L294.771 57.2451C286.214 53.7148 275.623 51.6206 265.352 51.6206V51.6006Z" fill="white"/>
<path d="M269.122 163.235C267.626 163.334 266.13 163.374 264.634 163.374C248.459 163.374 232.702 157.889 223.567 148.854C214.233 139.619 208.428 127.333 206.773 113.65C206.394 110.459 203.761 108.006 200.53 108.006H188.922C190.378 149.532 221.812 180.467 263.218 180.467C271.994 180.467 286.435 178.692 294.433 175.84L298.342 174.444L295.61 157.829C288.01 160.901 279.593 162.596 269.122 163.254V163.235Z" fill="white"/>
<path d="M453.194 142.849C462.329 152.243 474.915 157.429 488.617 157.429C515.424 157.429 534.711 140.994 539.817 115.284C540.575 111.495 537.623 107.984 533.773 107.984H522.484C521.028 127.132 508.024 139.737 489.176 139.737C470.327 139.737 457.323 127.132 455.867 107.984H445.635C441.766 107.984 438.814 111.475 439.492 115.284C441.387 125.975 446.094 135.529 453.214 142.849H453.194Z" fill="white"/>
<path d="M488.621 51.3594C474.918 51.3594 462.333 56.5452 453.198 65.9394C445.778 73.5785 440.971 83.6309 439.256 94.9001C438.677 98.6498 441.649 102.001 445.419 102.001H455.81C456.788 82.155 469.912 68.9711 489.159 68.9711C508.406 68.9711 521.55 82.155 522.508 102.001H534.275C538.284 102.001 541.077 98.7495 540.399 94.8203C536.051 69.8088 514.849 51.3594 488.601 51.3594H488.621Z" fill="white"/>
<path d="M426.826 101.999C430.038 101.999 432.65 99.5661 433.009 96.3749C434.565 82.9317 440.07 70.8448 448.906 61.7697C459.178 51.1987 473.279 45.3746 488.617 45.3746C518.814 45.3746 542.988 67.2746 546.698 96.5145C547.097 99.626 549.67 101.999 552.801 101.999H563.193C555.514 30.9342 500.764 22.6569 467.615 32.091C434.106 41.6249 417.512 72.0615 415.996 101.999H426.826Z" fill="white"/>
<path d="M547.219 114.128V178.591H563.793V116.142C563.813 113.35 563.734 110.657 563.594 107.984H553.362C549.971 107.984 547.219 110.737 547.219 114.128Z" fill="white"/>
<path d="M488.619 163.412C473.281 163.412 459.18 157.588 448.908 147.017C440.312 138.182 434.886 126.514 433.151 113.509C432.732 110.378 430.139 107.984 426.968 107.984H415.898C415.958 111.555 416.218 115.105 416.696 118.595C420.645 146.878 440.83 179.927 484.69 179.927C504.456 179.927 516.981 175.459 524.341 171.311V178.591H541.215V130.303C532.06 150.667 512.913 163.412 488.599 163.412H488.619Z" fill="white"/>
<path d="M648.383 146.4L695.793 31.0166H675.409L645.57 104.096V145.842C645.57 147.438 647.764 147.876 648.363 146.4H648.383Z" fill="white"/>
<path d="M639.588 146.38V106.968L605.94 31.0361H584.918L636.816 146.998C637.454 148.434 639.608 147.976 639.608 146.4L639.588 146.38Z" fill="white"/>
<path d="M702.255 31.0166L647.784 163.633C646.328 167.183 645.57 170.993 645.57 174.842V178.612H663.74L723.995 31.0166H702.235H702.255Z" fill="white"/>
<path d="M636.994 161.28L578.354 31.0166H557.332L622.753 178.612H639.587V173.386C639.587 169.218 638.709 165.089 636.994 161.28Z" fill="white"/>
<path d="M41.9257 138.499C51.6391 148.113 64.3243 154.236 78.326 156.271C82.1754 156.829 85.626 153.857 85.626 149.988V139.118C58.8194 137.841 40.6891 119.751 39.4525 92.9443H29.6194C25.77 92.9443 22.7981 96.335 23.3167 100.145C25.3312 115.084 31.7536 128.447 41.9257 138.519V138.499Z" fill="white"/>
<path d="M153.939 100.744C154.537 96.6157 151.266 92.9258 147.097 92.9258H137.883C136.626 119.772 118.456 137.863 91.6094 139.099V149.989C91.6094 153.879 95.0599 156.831 98.9094 156.272C112.971 154.278 125.676 148.134 135.409 138.501C145.442 128.588 151.824 115.444 153.919 100.744H153.939Z" fill="white"/>
<path d="M29.6194 86.9433H39.4525C40.7091 60.1367 58.8394 42.0463 85.626 40.7698V29.8996C85.626 26.0103 82.1754 23.0583 78.326 23.6168C64.3044 25.6313 51.6391 31.7545 41.9257 41.3881C31.7536 51.4406 25.3312 64.8239 23.3167 79.763C22.7981 83.5725 25.77 86.9632 29.6194 86.9632V86.9433Z" fill="white"/>
<path d="M91.6094 11.0497C91.6094 14.3208 94.1025 16.9934 97.3536 17.3524C113.629 19.1475 128.389 25.9888 139.618 37.0983C151.146 48.4871 158.267 63.7254 160.162 80.6789C160.56 84.2092 163.472 86.9218 167.023 86.9218H177.334C176.636 62.7081 167.521 40.7683 151.445 24.8718C135.848 9.45409 114.686 0.698087 91.6094 0V11.0497Z" fill="white"/>
<path d="M85.6253 168.798C85.6253 165.527 83.1322 162.854 79.8811 162.495C63.6456 160.68 48.906 153.839 37.6967 142.769C26.0686 131.261 18.9082 115.843 17.1131 98.69C16.774 95.4389 14.0814 92.9258 10.8104 92.9258H0C0.698087 117.139 9.8131 139.079 25.889 154.976C41.4664 170.374 62.5885 179.13 85.6253 179.848V168.798Z" fill="white"/>
<path d="M160.162 99.1687C158.267 116.122 151.146 131.36 139.618 142.749C128.389 153.839 113.629 160.7 97.3536 162.495C94.1025 162.854 91.6094 165.527 91.6094 168.798V179.848C114.686 179.149 135.848 170.393 151.445 154.976C167.521 139.079 176.636 117.119 177.334 92.9258H167.023C163.472 92.9258 160.56 95.6384 160.162 99.1687Z" fill="white"/>
<path d="M37.7162 37.0983C48.9255 26.0087 63.6651 19.1675 79.9006 17.3524C83.1517 16.9934 85.6449 14.3008 85.6449 11.0497V0C62.608 0.718032 41.4859 9.45409 25.9086 24.8718C9.83264 40.7683 0.717618 62.7281 0.0195312 86.9218H10.8299C14.1009 86.9218 16.7936 84.4286 17.1326 81.1576C18.9477 64.0046 26.0881 48.5868 37.7162 37.0784V37.0983Z" fill="white"/>
<path d="M135.409 41.3485C125.656 31.7149 112.951 25.5718 98.9094 23.5772C95.0599 23.0387 91.6094 25.9906 91.6094 29.86V40.7502C118.456 41.9868 136.626 60.0772 137.883 86.9236H147.097C151.266 86.9236 154.537 83.2337 153.939 79.105C151.844 64.4253 145.442 51.2813 135.429 41.3485H135.409Z" fill="white"/>
<path d="M995.154 140.524C995.154 141.629 994.259 142.524 993.154 142.524H750C748.895 142.524 748 141.629 748 140.524V32.5889C748 31.4843 748.895 30.5889 750 30.5889H993.154C994.259 30.5889 995.154 31.4843 995.154 32.5889V140.524ZM941.186 44.5693C917.384 44.5694 897.96 62.8096 897.96 86.5654C897.96 110.321 917.384 128.562 941.186 128.562C964.987 128.562 984.412 110.431 984.412 86.5654C984.412 62.7003 964.987 44.5693 941.186 44.5693ZM763.357 125.197C763.357 126.302 764.253 127.197 765.357 127.197H777.024C778.129 127.197 779.024 126.302 779.024 125.197V88.1422C779.024 86.1222 781.678 85.3758 782.731 87.0996L786.902 93.9274C787.266 94.5221 787.912 94.8848 788.609 94.8848H795.731C811.909 94.8846 822.359 85.0908 822.359 70.4004C822.359 55.7102 811.909 45.9172 795.731 45.917H765.357C764.253 45.917 763.357 46.8124 763.357 47.917V125.197ZM832.884 125.197C832.884 126.302 833.779 127.197 834.884 127.197H846.551C847.655 127.197 848.551 126.302 848.551 125.197V88.3175C848.551 86.2993 851.2 85.5514 852.256 87.2717L876.163 126.243C876.526 126.836 877.172 127.197 877.867 127.197H890.873C892.446 127.197 893.404 125.464 892.566 124.132L874.127 94.8286C873.404 93.679 874.016 92.1574 875.296 91.7024C884.799 88.323 890.518 80.5036 890.519 69.8916C890.519 55.4013 879.885 45.917 864.108 45.917H834.884C833.779 45.917 832.884 46.8124 832.884 47.917V125.197ZM940.978 60.1396C956.042 60.1397 967.395 71.5991 967.395 87.0049C967.394 102.41 956.15 113.869 940.978 113.869C925.805 113.869 914.561 102.41 914.561 87.0049C914.561 71.5991 925.805 60.1396 940.978 60.1396ZM795.094 60.1396C801.891 60.1396 806.207 64.0107 806.207 70.3828C806.207 76.7552 801.783 80.7363 795.094 80.7363H781.342C780.237 80.7363 779.342 79.8409 779.342 78.7363V62.1396C779.342 61.0351 780.237 60.1396 781.342 60.1396H795.094ZM862.755 60.1396C869.616 60.1397 874.264 63.9534 874.264 70.3389C874.264 76.7245 869.616 80.7362 862.755 80.7363H850.295C849.19 80.7363 848.295 79.8409 848.295 78.7363V62.1396C848.295 61.0351 849.19 60.1396 850.295 60.1396H862.755Z" fill="#FF1A45"/>
</svg>
