<svg xmlns="http://www.w3.org/2000/svg" fill="none" viewBox="0 0 36 24">
  <g transform="translate(6 0) scale(0.0329)">
    <path fill="currentColor" d="M514.935 0.0130279C500.381 0.287642 484.137 3.09613 465.674 9.1807C460.548 10.8699 455.118 11.4273 449.762 10.7651C367.206 0.558702 221.045 16.9958 115.092 117.357C86.701 141.529 62.0135 171.216 42.6072 205.747C-48.7584 368.716 11.529 581.06 178.373 679.966C344.935 778.716 552.904 726.372 644.154 563.404C719.31 429.81 683.219 248.06 587.279 152.154C577.719 142.935 567.283 140.184 550.219 141.56C550.219 141.56 541.219 142.993 534.219 148.56C527.219 154.126 524.719 160.06 524.719 160.06C522.219 165.06 521.219 177.06 525.248 188.247C534.5 209.56 619.058 333.935 595.56 462.561C543.902 617.466 354.721 665.811 237.219 604.561C90.9375 520.186 79.25 362.466 139.719 254.185C176.75 187.779 234.125 141.247 302.719 141.56C312.095 141.56 339.114 147.895 363.297 154.126C380.822 158.641 397.406 142.067 394.092 124.275C393.725 122.308 393.368 120.332 393.015 118.345C391.893 112.006 395.115 105.704 400.873 102.826C414.083 96.2206 425.902 86.8351 436.672 74.8964C439.085 72.2222 441.881 69.6914 445.252 68.4255C462.249 62.0444 469.552 82.1346 457.309 95.5391C452.45 100.858 447.333 105.822 441.94 110.376C431.692 119.028 425.373 132.199 428.861 145.149C433.272 161.529 439.453 179.051 447.904 196.06C465.87 229.081 497.236 264.355 523.137 276.17C530.226 279.404 534.829 271.922 530.617 265.367C516.018 242.648 503.519 221.967 498.373 202.154C491.342 175.122 493.529 150.279 507.904 132.935C518.529 120.013 535.248 113.607 554.31 114.076Z"/>
  </g>
</svg>
